<svg xmlns="http://www.w3.org/2000/svg" width="24" height="24" viewBox="0 0 24 24"><defs><style>.a{fill:none;}.b{fill:#7956bf;}.c{fill:#220061;}</style></defs><path class="a" d="M0,0H24V24H0Z"/><path class="b" d="M16.2,15.8A7.627,7.627,0,0,1,12,17a7.627,7.627,0,0,1-4.2-1.2l1.1-1.7a6.139,6.139,0,0,0,6.4,0Z"/><path class="c" d="M23,10v4a2.006,2.006,0,0,1-2,2H19.9A7.984,7.984,0,0,1,12,23V21a6.018,6.018,0,0,0,6-6V9A6,6,0,0,0,6,9v7H3a2.006,2.006,0,0,1-2-2V10A2.006,2.006,0,0,1,3,8H4.1A7.856,7.856,0,0,1,13,1.1,7.96,7.96,0,0,1,19.9,8H21A2.006,2.006,0,0,1,23,10Z"/></svg>