<svg xmlns="http://www.w3.org/2000/svg" width="24" height="24" viewBox="0 0 24 24"><defs><style>.a{fill:none;}.b{fill:#220061;}.c{fill:#7956bf;}</style></defs><path class="a" d="M12.1,11.7,4.5,5h15Z"/><path class="a" d="M20,7.2V19H4V7.2l8.1,7.1Z"/><path class="a" d="M0,0V24H24V0ZM22,20a1.075,1.075,0,0,1-1,1H3a1.075,1.075,0,0,1-1-1V4A1.075,1.075,0,0,1,3,3H21a1.075,1.075,0,0,1,1,1Z"/><path class="b" d="M21,3H3A1.075,1.075,0,0,0,2,4V20a1.075,1.075,0,0,0,1,1H21a1.075,1.075,0,0,0,1-1V4A1.075,1.075,0,0,0,21,3ZM20,19H4V5H20Z"/><path class="c" d="M20,5V7.2l-7.9,7.1L4,7.2V5h.5l7.6,6.7L19.5,5Z"/></svg>