<svg xmlns="http://www.w3.org/2000/svg" width="222.765" height="36.331" viewBox="0 0 222.765 36.331"><defs><style>.a{fill:#fff;}</style></defs><path class="a" d="M34.178,20.02a9.85,9.85,0,0,1,7.616,3.1,11.806,11.806,0,0,1,2.855,8.311V48.494H37.5V31.931a5.68,5.68,0,0,0-1.219-3.879,4.343,4.343,0,0,0-3.438-1.386,4.694,4.694,0,0,0-3.791,1.606,7.025,7.025,0,0,0-1.361,4.653V48.494H20.549V31.931a5.68,5.68,0,0,0-1.219-3.879A4.328,4.328,0,0,0,15.9,26.666a4.8,4.8,0,0,0-3.8,1.606,6.854,6.854,0,0,0-1.411,4.653V48.494H3.54v-27.7h7.15v2.938q2.491-3.714,7.7-3.712a8.211,8.211,0,0,1,7.533,3.987Q28.693,20.018,34.178,20.02Z" transform="translate(-3.54 -13.037)"/><path class="a" d="M95.494,45.031a14.883,14.883,0,0,1-20.8,0,14.127,14.127,0,0,1-4.241-10.388,14.653,14.653,0,1,1,29.307,0,14.069,14.069,0,0,1-4.266,10.388Zm-15.76-4.9a7.208,7.208,0,0,0,5.348,2.16,7.3,7.3,0,0,0,5.373-2.16,7.436,7.436,0,0,0,2.16-5.485,7.436,7.436,0,0,0-2.16-5.485A7.3,7.3,0,0,0,85.082,27a7.208,7.208,0,0,0-5.348,2.16A7.479,7.479,0,0,0,77.6,34.644a7.479,7.479,0,0,0,2.131,5.485Z" transform="translate(-27.463 -13.036)"/><path class="a" d="M150.247,20.02a9.85,9.85,0,0,1,7.616,3.1,11.806,11.806,0,0,1,2.855,8.311V48.494h-7.145V31.931a5.68,5.68,0,0,0-1.219-3.879,4.343,4.343,0,0,0-3.438-1.386,4.694,4.694,0,0,0-3.791,1.606,7.025,7.025,0,0,0-1.361,4.653V48.494h-7.146V31.931a5.68,5.68,0,0,0-1.219-3.879,4.328,4.328,0,0,0-3.433-1.386,4.8,4.8,0,0,0-3.8,1.606,6.854,6.854,0,0,0-1.411,4.653V48.494h-7.149v-27.7h7.15v2.938q2.491-3.714,7.7-3.712a8.211,8.211,0,0,1,7.533,3.987Q144.762,20.018,150.247,20.02Z" transform="translate(-45.04 -13.037)"/><path class="a" d="M194,37.579q1.442,5.206,7.811,5.206a7.305,7.305,0,0,0,6.205-2.772l5.764,3.325q-4.1,5.93-12.077,5.926-6.873,0-11.024-4.153a14.192,14.192,0,0,1-4.158-10.471,14.329,14.329,0,0,1,4.1-10.442,14.107,14.107,0,0,1,10.529-4.182A13.215,13.215,0,0,1,211.2,24.225a14.637,14.637,0,0,1,3.962,10.417,16.926,16.926,0,0,1-.279,2.938Zm-.108-5.543h14.125a6.686,6.686,0,0,0-2.518-4.207,7.233,7.233,0,0,0-4.349-1.386,7.515,7.515,0,0,0-4.765,1.469,6.988,6.988,0,0,0-2.493,4.124Z" transform="translate(-68.961 -13.034)"/><path class="a" d="M249.959,20.018a10.03,10.03,0,0,1,7.508,3.046q2.965,3.046,2.963,8.419V48.492h-7.145V32.369a5.674,5.674,0,0,0-1.5-4.237,5.445,5.445,0,0,0-3.987-1.469,5.884,5.884,0,0,0-4.432,1.719,7.145,7.145,0,0,0-1.661,5.152V48.492h-7.15v-27.7h7.15v3.1Q244.309,20.015,249.959,20.018Z" transform="translate(-86.139 -13.034)"/><path class="a" d="M294.521,23.779h-6.263V35.3a2.739,2.739,0,0,0,.72,2.1,3.294,3.294,0,0,0,2.106.749,31.179,31.179,0,0,0,3.438-.029v6.484q-7.372.83-10.388-1.386t-3.021-7.92V23.779h-4.819V16.908h4.819v-5.6l7.146-2.16v7.757h6.263Z" transform="translate(-101.061 -9.15)"/><path class="a" d="M329.7,45.016a14.69,14.69,0,1,1,4.266-10.388A14.069,14.069,0,0,1,329.7,45.016Zm-15.76-4.9a7.208,7.208,0,0,0,5.348,2.16,7.3,7.3,0,0,0,5.373-2.16,7.436,7.436,0,0,0,2.16-5.485,7.436,7.436,0,0,0-2.16-5.485,7.3,7.3,0,0,0-5.373-2.16,7.208,7.208,0,0,0-5.348,2.16,7.479,7.479,0,0,0-2.131,5.485,7.479,7.479,0,0,0,2.131,5.485Z" transform="translate(-111.203 -13.02)"/></svg>