<svg xmlns="http://www.w3.org/2000/svg" width="201.242" height="32.712" viewBox="0 0 201.242 32.712"><defs><style>.a{fill:#fff;}</style></defs><path class="a" d="M3.334,11.915v3.02h.5c.818-1.7,2.453-3.334,5.976-3.334,3.774,0,6.92,2.453,6.92,7.36V29.717h-3.4V19.338c0-3.082-1.7-4.718-4.592-4.718-3.334,0-5.41,2.139-5.41,5.85v9.31H0V11.915Z" transform="translate(0 -4.303)"/><path class="a" d="M41.185,11.3a9.026,9.026,0,0,1,9.185,9.436c0,5.536-3.9,9.436-9.185,9.436S32,26.272,32,20.736C32.063,15.2,35.963,11.3,41.185,11.3Zm0,15.727c3.4,0,5.725-2.39,5.725-6.291s-2.328-6.291-5.725-6.291-5.725,2.39-5.725,6.291S37.788,27.027,41.185,27.027Z" transform="translate(-11.869 -4.191)"/><path class="a" d="M83.406,25.478H80.072V22.647h-.5a6.546,6.546,0,0,1-6.1,3.334c-4.718,0-8.367-3.9-8.367-9.436s3.649-9.436,8.367-9.436a6.4,6.4,0,0,1,6.1,3.334h.44V0h3.4ZM68.5,16.545c0,4.089,2.39,6.354,5.85,6.354,3.523,0,5.662-2.453,5.662-6.354s-2.2-6.354-5.662-6.354S68.5,12.456,68.5,16.545Z" transform="translate(-24.147)"/><path class="a" d="M108.807,11.2c5.221,0,8.744,3.837,8.744,9v1.7H103.522a5.668,5.668,0,0,0,10.757,2.013l2.894,1.636a8.722,8.722,0,0,1-7.863,4.529c-5.536,0-9.31-4.215-9.31-9.562C99.937,15.352,103.648,11.2,108.807,11.2Zm5.158,7.989c-.063-3.082-2.013-4.97-5.158-4.97s-5.033,1.824-5.284,4.97Z" transform="translate(-37.092 -4.154)"/><path class="a" d="M131.6,36.3h17.237v3.145H131.6Z" transform="translate(-48.813 -13.464)"/><path class="a" d="M170.178,11.3c3.649,0,6.039,1.447,8.87,4.529l-2.516,1.824c-1.95-2.516-4.089-3.523-6.228-3.523-2.013,0-3.523.881-3.523,2.39,0,1.761,1.761,1.95,3.649,2.2l1.51.189c4.026.566,7.171,1.573,7.171,5.284,0,3.586-3.271,5.913-7.863,5.913a10.048,10.048,0,0,1-9.247-5.6l3.082-1.636a6.661,6.661,0,0,0,6.354,4.341c2.516,0,4.341-1.132,4.341-2.894,0-1.824-2.265-2.013-4.215-2.265l-1.51-.189c-4.026-.566-6.668-1.887-6.668-5.284S166.529,11.3,170.178,11.3Z" transform="translate(-60.089 -4.191)"/><path class="a" d="M194.7,11.8h3.334v2.831h.5a6.547,6.547,0,0,1,6.1-3.334c4.718,0,8.367,3.9,8.367,9.436s-3.649,9.436-8.367,9.436a6.4,6.4,0,0,1-6.1-3.334h-.44V36.9h-3.4Zm14.909,8.933c0-4.089-2.391-6.354-5.85-6.354-3.523,0-5.662,2.453-5.662,6.354s2.2,6.354,5.662,6.354S209.609,24.825,209.609,20.736Z" transform="translate(-72.218 -4.191)"/><path class="a" d="M236.607,11.3c4.781,0,7.926,2.831,7.926,7.109V29.669H241.2V26.838h-.5c-.755,1.573-2.642,3.334-6.291,3.334-4.026,0-6.605-2.2-6.605-5.41s2.2-4.97,6.794-5.41l6.605-.629v-.5c0-2.453-1.7-3.9-4.592-3.9a5.5,5.5,0,0,0-5.473,3.523l-2.957-1.321A8.935,8.935,0,0,1,236.607,11.3Zm-1.636,16.041c4.152,0,6.228-2.516,6.228-5.6v-.315l-6.228.566c-2.076.189-3.712.818-3.712,2.642C231.26,26.335,232.581,27.341,234.971,27.341Z" transform="translate(-84.496 -4.191)"/><path class="a" d="M268.984,11.3a8.365,8.365,0,0,1,8.681,6.92l-3.334.692a4.949,4.949,0,0,0-5.284-4.466c-3.4,0-5.85,2.516-5.85,6.291s2.391,6.291,5.913,6.291c3.4,0,4.781-2.139,5.284-4.466l3.4.629a8.522,8.522,0,0,1-8.681,6.92,9.055,9.055,0,0,1-9.31-9.436A8.973,8.973,0,0,1,268.984,11.3Z" transform="translate(-96.365 -4.191)"/><path class="a" d="M300.807,11.2c5.221,0,8.744,3.837,8.744,9v1.7H295.522a5.668,5.668,0,0,0,10.757,2.013l2.894,1.636a8.722,8.722,0,0,1-7.863,4.529c-5.536,0-9.31-4.215-9.31-9.562C291.937,15.352,295.648,11.2,300.807,11.2Zm5.158,7.989c-.063-3.082-2.013-4.97-5.158-4.97s-5.033,1.824-5.284,4.97Z" transform="translate(-108.309 -4.154)"/></svg>