<svg width="22" height="16" viewBox="0 0 22 16" fill="none" xmlns="http://www.w3.org/2000/svg">
<path d="M10.7813 0C10.7813 0 4.03791 6.2561e-06 2.34542 0.439791C1.4392 0.692997 0.693 1.4392 0.439792 2.35875C1.00199e-05 4.05124 0 7.55625 0 7.55625C0 7.55625 1.00199e-05 11.0746 0.439792 12.7404C0.693 13.6599 1.42587 14.3928 2.34542 14.646C4.05123 15.0991 10.7813 15.0992 10.7813 15.0992C10.7813 15.0992 17.538 15.0992 19.2304 14.6594C20.15 14.4062 20.8828 13.6866 21.1227 12.7537C21.5758 11.0746 21.5758 7.56958 21.5758 7.56958C21.5758 7.56958 21.5892 4.05124 21.1227 2.35875C20.8828 1.4392 20.15 0.706341 19.2304 0.466458C17.538 2.13114e-05 10.7813 0 10.7813 0ZM8.63563 4.31791L14.2463 7.55625L8.63563 10.7812V4.31791Z" fill="white"/>
</svg>
