<?xml version="1.0" encoding="utf-8"?>
<!-- Generator: Adobe Illustrator 25.4.1, SVG Export Plug-In . SVG Version: 6.00 Build 0)  -->
<svg version="1.1" id="Laag_1" xmlns="http://www.w3.org/2000/svg" xmlns:xlink="http://www.w3.org/1999/xlink" x="0px" y="0px"
	 viewBox="0 0 24 24" style="enable-background:new 0 0 24 24;" xml:space="preserve">
<style type="text/css">
	.st0{fill:none;}
	.st1{fill:#220061;}
	.st2{fill:#7956BF;}
</style>
<path class="st0" d="M0,0h24v24H0V0z"/>
<rect x="1" y="11" transform="matrix(0.7069 -0.7073 0.7073 0.7069 -4.9723 12.0062)" class="st1" width="22" height="2"/>
<path class="st2" d="M17.5,14c-1.9,0-3.5,1.6-3.5,3.5s1.6,3.5,3.5,3.5s3.5-1.6,3.5-3.5S19.4,14,17.5,14z M17.5,19
	c-0.8,0-1.5-0.7-1.5-1.5s0.7-1.5,1.5-1.5s1.5,0.7,1.5,1.5S18.3,19,17.5,19z"/>
<path class="st2" d="M6.5,3C4.6,3,3,4.6,3,6.5S4.6,10,6.5,10S10,8.4,10,6.5S8.4,3,6.5,3z M6.5,8C5.7,8,5,7.3,5,6.5S5.7,5,6.5,5
	S8,5.7,8,6.5S7.3,8,6.5,8z"/>
</svg>
