<svg width="21" height="21" viewBox="0 0 21 21" fill="none" xmlns="http://www.w3.org/2000/svg">
<path fill-rule="evenodd" clip-rule="evenodd" d="M0 0V21H21V0H0ZM6.53179 17.4462H3.41612V8.07259H6.53179V17.4462ZM4.97395 6.7932H4.95337C3.90822 6.7932 3.23077 6.07315 3.23077 5.17315C3.23077 4.2534 3.92802 3.55375 4.99435 3.55375C6.06092 3.55375 6.71635 4.2534 6.73675 5.17315C6.73675 6.07315 6.06092 6.7932 4.97395 6.7932ZM17.7692 17.4462H14.6527V12.4313C14.6527 11.1717 14.2025 10.3119 13.0745 10.3119C12.2131 10.3119 11.7012 10.8908 11.4757 11.4516C11.3937 11.6519 11.3723 11.9304 11.3723 12.2112V17.4463H8.25522C8.25522 17.4463 8.29698 8.952 8.25522 8.07263H11.3723V9.40089C11.7864 8.76365 12.5255 7.85257 14.181 7.85257C16.232 7.85257 17.7692 9.19195 17.7692 12.0709V17.4462Z" fill="white"/>
</svg>
