<?xml version="1.0" encoding="utf-8"?>
<!-- Generator: Adobe Illustrator 25.4.1, SVG Export Plug-In . SVG Version: 6.00 Build 0)  -->
<svg version="1.1" id="Laag_1" xmlns="http://www.w3.org/2000/svg" xmlns:xlink="http://www.w3.org/1999/xlink" x="0px" y="0px"
	 viewBox="0 0 170.4 32" style="enable-background:new 0 0 170.4 32;" xml:space="preserve">
<style type="text/css">
	.st0{fill:#FFFFFF;}
	.st1{fill:#7956BF;}
</style>
<g id="logo" transform="translate(11268.521 279.243)">
	<path id="Path_8134" class="st0" d="M-11260.5-261.8l11.1-11.8v-5.3h-18.4v5.5h10.9l-11.6,11.8v5.3h19.9v-5.5H-11260.5z
		 M-11227-278.8v3.1c-0.9-1-2-1.7-3.1-2.3c-1.5-0.7-3.1-1.1-4.8-1.2c-1.7,0-3.4,0.2-4.9,0.8c-1.5,0.6-2.9,1.5-4.1,2.6
		c-4.6,4.3-4.7,11.5-0.4,16.1c0.1,0.1,0.3,0.3,0.4,0.4c1.2,1.1,2.6,2,4.1,2.6c1.6,0.6,3.3,0.9,4.9,0.8c1.7-0.1,3.3-0.4,4.8-1.2
		c1.2-0.6,2.2-1.4,3.1-2.3v3.1h6.1v-22.5L-11227-278.8z M-11227.7-264.8c-0.5,0.8-1.2,1.5-2,2.1c-0.8,0.5-1.6,0.9-2.6,1.1
		c-0.9,0.2-1.7,0.3-2.6,0.2c-1.7-0.1-3.3-0.7-4.5-1.9c-0.6-0.5-1.1-1.2-1.5-1.9c-0.3-0.7-0.5-1.5-0.5-2.3c0-0.8,0.2-1.6,0.5-2.3
		c0.4-0.7,0.8-1.4,1.5-1.9c1.3-1.1,2.9-1.8,4.5-1.9c0.9-0.1,1.8,0,2.6,0.2c0.9,0.2,1.8,0.6,2.6,1.1c0.8,0.5,1.5,1.2,2,2.1
		C-11226.7-268.6-11226.7-266.5-11227.7-264.8z M-11194.1-275.8c-1.2-1.1-2.6-2-4.1-2.6c-1.6-0.6-3.3-0.9-4.9-0.8
		c-1.7,0.1-3.3,0.4-4.8,1.2c-1.2,0.6-2.2,1.3-3.1,2.3v-3h-6.1v31.5h6.1v-12.1c0.9,0.9,2,1.7,3.1,2.3c1.5,0.7,3.1,1.1,4.8,1.2
		c1.7,0,3.4-0.2,4.9-0.8c1.5-0.6,2.9-1.5,4.1-2.6c4.6-4.3,4.7-11.5,0.4-16.1C-11193.8-275.5-11193.9-275.7-11194.1-275.8
		L-11194.1-275.8z M-11197.1-265.2c-0.4,0.7-0.8,1.4-1.5,1.9c-1.3,1.1-2.9,1.8-4.5,1.9c-0.9,0.1-1.8,0-2.6-0.2
		c-0.9-0.2-1.8-0.6-2.6-1.1c-0.8-0.5-1.5-1.2-2-2.1c-1-1.7-1-3.8,0-5.5c0.5-0.8,1.2-1.5,2-2.1c0.8-0.5,1.6-0.9,2.6-1.1
		c0.9-0.2,1.7-0.3,2.6-0.2c1.7,0.1,3.3,0.7,4.5,1.9c0.6,0.5,1.1,1.2,1.5,1.9c0.3,0.7,0.5,1.5,0.5,2.3
		C-11196.6-266.8-11196.8-266-11197.1-265.2L-11197.1-265.2z M-11164.9-275.8c-1.2-1.1-2.6-2-4.1-2.6c-1.6-0.6-3.3-0.9-4.9-0.8
		c-1.7,0.1-3.3,0.4-4.8,1.2c-1.2,0.6-2.2,1.3-3.1,2.3v-3h-6.1v31.5h6.1v-12.1c0.9,0.9,2,1.7,3.1,2.3c1.5,0.7,3.1,1.1,4.8,1.2
		c1.7,0.1,3.4-0.2,5-0.8c1.5-0.6,2.9-1.5,4.1-2.6c4.6-4.3,4.7-11.5,0.4-16.1C-11164.6-275.5-11164.7-275.7-11164.9-275.8
		L-11164.9-275.8z M-11168-265.2c-0.4,0.7-0.8,1.4-1.5,1.9c-1.3,1.1-2.9,1.8-4.5,1.9c-0.9,0.1-1.8,0-2.6-0.2
		c-0.9-0.2-1.8-0.6-2.6-1.1c-0.8-0.5-1.5-1.2-2-2.1c-1-1.7-1-3.8,0-5.5c0.5-0.8,1.2-1.5,2-2.1c0.8-0.5,1.6-0.9,2.6-1.1
		c0.9-0.2,1.7-0.3,2.6-0.2c1.7,0.1,3.3,0.7,4.5,1.9c0.6,0.5,1.1,1.2,1.5,1.9c0.3,0.7,0.5,1.5,0.5,2.3
		C-11167.4-266.8-11167.6-266-11168-265.2L-11168-265.2z M-11141.7-278.8l-0.7,1.5l-6.3,14.2l-6.5-15.6h-6.6l10,21.8l-4.4,9.7h6.6
		l6.7-14.6l7.8-16.9L-11141.7-278.8z"/>
	<rect id="Rectangle_1229" x="-11129.1" y="-267.3" class="st1" width="31" height="5.6"/>
</g>
</svg>
