<?xml version="1.0" encoding="utf-8"?>
<!-- Generator: Adobe Illustrator 25.4.1, SVG Export Plug-In . SVG Version: 6.00 Build 0)  -->
<svg version="1.1" id="Laag_1" xmlns="http://www.w3.org/2000/svg" xmlns:xlink="http://www.w3.org/1999/xlink" x="0px" y="0px"
	 viewBox="0 0 24 24" style="enable-background:new 0 0 24 24;" xml:space="preserve">
<style type="text/css">
	.st0{fill:none;}
	.st1{fill:#220061;}
	.st2{fill:#7956BF;}
</style>
<path class="st0" d="M0,0h24v24H0V0z"/>
<path class="st1" d="M20,8.2c0-0.1,0-0.3,0-0.4c0-0.1-0.1-0.3-0.1-0.4c0-0.1-0.1-0.3-0.1-0.4c-0.1-0.3-0.1-0.5-0.2-0.8
	c0-0.1-0.1-0.2-0.1-0.3c0-0.1-0.1-0.2-0.2-0.3c-0.4-0.8-0.9-1.5-1.5-2.1c0-0.1-0.1-0.1-0.2-0.2c0-0.1-0.1-0.1-0.1-0.1
	c-0.1-0.1-0.2-0.2-0.3-0.2c-0.2-0.2-0.4-0.3-0.6-0.5c-0.1-0.1-0.2-0.1-0.2-0.2c-0.5-0.3-1-0.5-1.5-0.7c-0.1,0-0.2-0.1-0.4-0.1
	c-0.2,0-0.4-0.1-0.5-0.1c-0.2,0-0.3-0.1-0.5-0.1c-0.2,0-0.4-0.1-0.7-0.1c-0.2,0-0.4,0-0.7,0c-0.3,0-0.6,0-0.9,0
	c-0.1,0-0.3,0-0.4,0.1c-0.4,0.1-0.8,0.2-1.1,0.3c-0.1,0-0.2,0.1-0.3,0.1C9.1,1.5,9,1.6,8.9,1.6C8.4,1.8,8,2.1,7.5,2.4
	C7.4,2.4,7.3,2.5,7.2,2.6c0,0,0,0,0,0C7.1,2.7,7,2.8,6.9,2.8C6.8,2.9,6.7,3,6.6,3.1C6.5,3.2,6.5,3.2,6.4,3.3
	C6.3,3.4,6.2,3.5,6.1,3.6c-0.3,0.3-0.5,0.6-0.7,1C5.2,4.8,5.1,4.9,5,5.1C4.9,5.2,4.9,5.4,4.8,5.5C4.7,5.6,4.7,5.8,4.6,5.9
	C4.6,6,4.5,6.2,4.5,6.3c0,0.1-0.1,0.2-0.1,0.3C4.3,6.9,4.2,7.1,4.2,7.4c0,0.1,0,0.3-0.1,0.4c0,0.1,0,0.3,0,0.4s0,0.3,0,0.4
	S4,8.8,4,9c0,0.4,0,0.8,0.1,1.2c0,0.3,0.1,0.5,0.2,0.8c0.1,0.3,0.1,0.5,0.2,0.8c0.2,0.5,0.4,1,0.7,1.4c0.4,0.6,0.8,1.1,1.3,1.6
	c0.2,0.2,0.3,0.3,0.5,0.5c0.7,0.6,1.5,1,2.3,1.3c0.2,0.1,0.5,0.2,0.7,0.2c0.1,0,0.3,0.1,0.4,0.1c0.1,0,0.2,0,0.3,0
	c0.2,0,0.3,0,0.5,0.1c0.1,0,0.2,0,0.3,0h0.1c0.1,0,0.1,0,0.2,0c0.1,0,0.1,0,0.2,0s0.1,0,0.2,0c0.1,0,0.1,0,0.2,0h0.1
	c0.1,0,0.2,0,0.3,0c0.2,0,0.3,0,0.5-0.1c0.1,0,0.2,0,0.3,0c0.1,0,0.3-0.1,0.4-0.1c0.2-0.1,0.5-0.1,0.7-0.2c0.8-0.3,1.6-0.7,2.3-1.3
	v0c0.2-0.2,0.4-0.4,0.6-0.6c0.2-0.2,0.4-0.4,0.5-0.6c0.2-0.2,0.3-0.4,0.5-0.6c0-0.1,0.1-0.2,0.2-0.2c0,0,0-0.1,0.1-0.1
	c0.1-0.2,0.2-0.4,0.3-0.6c0.1-0.2,0.2-0.5,0.3-0.7c0.1-0.4,0.2-0.8,0.3-1.1c0-0.1,0-0.3,0.1-0.4c0-0.1,0-0.3,0-0.4
	c0-0.1,0-0.3,0-0.4c0-0.1,0-0.3,0-0.4C20,8.7,20,8.4,20,8.2z M12,15c-3.3,0-6-2.7-6-6s2.7-6,6-6s6,2.7,6,6S15.3,15,12,15z"/>
<path class="st2" d="M9.3,16.5c-0.1,0-0.2-0.1-0.3-0.1v3l3-1.8l3,1.8v-3c-0.1,0-0.2,0.1-0.3,0.1c0.8-0.3,1.6-0.7,2.3-1.3v6.9
	c0,0.3-0.2,0.5-0.5,0.5c-0.1,0-0.2,0-0.3-0.1L12,20l-4.2,2.5c-0.2,0.1-0.5,0.1-0.7-0.2C7,22.3,7,22.2,7,22.1v-6.9"/>
</svg>
