<svg xmlns="http://www.w3.org/2000/svg" width="190.678" height="32.604" viewBox="0 0 190.678 32.604"><defs><style>.a{fill:#fff;}</style></defs><path class="a" d="M30.914,32.541H11.389a11.376,11.376,0,0,1-1.5-22.654,11.4,11.4,0,0,1,22.591,0A11.409,11.409,0,0,1,31.039,32.6C30.977,32.541,30.977,32.541,30.914,32.541ZM21.152,3.254a8.119,8.119,0,0,0-8.135,8.135,1.657,1.657,0,0,1-1.627,1.627,8.135,8.135,0,1,0,0,16.27H30.914a8.143,8.143,0,0,0,1.5-16.145,11.364,11.364,0,0,1-3.942,6.946,1.643,1.643,0,0,1-2.128-2.5,8.023,8.023,0,0,0,2.879-6.258A8.013,8.013,0,0,0,21.152,3.254Z"/><g transform="translate(51.377 5.945)"><path class="a" d="M94.115,28.463l2.691,1.752a8.443,8.443,0,0,1-6.571,3.066h0A7.854,7.854,0,0,1,82.1,25.709a7.367,7.367,0,0,1,2.378-5.319,8.361,8.361,0,0,1,5.757-2.19h0a8.406,8.406,0,0,1,6.571,3.129l-2.753,1.752a4.863,4.863,0,0,0-3.88-1.877h0a4.779,4.779,0,0,0-3.379,1.314,4.334,4.334,0,0,0-1.439,3.192,4.642,4.642,0,0,0,4.819,4.506h0A4.624,4.624,0,0,0,94.115,28.463Z" transform="translate(-82.1 -12.756)"/><path class="a" d="M107.8,29.776V9.5h3.317V29.776Z" transform="translate(-91.717 -9.5)"/><path class="a" d="M132.07,25.772a8.156,8.156,0,0,1-16.27,0,8.156,8.156,0,0,1,16.27,0Zm-3.317,0a4.829,4.829,0,0,0-9.637,0,4.829,4.829,0,0,0,9.637,0Z" transform="translate(-94.711 -12.756)"/><path class="a" d="M158.03,18.7V33.156h-3.317V31.4a5.335,5.335,0,0,1-1.5,1.377,6.117,6.117,0,0,1-2.753.814,11.078,11.078,0,0,1-1.439-.063,5.494,5.494,0,0,1-1.439-.438,5.368,5.368,0,0,1-1.252-.814,4.985,4.985,0,0,1-.939-1.064,7.154,7.154,0,0,1-1-2.378c-.063-.375-.125-.814-.188-1.189V18.7h3.317v8.7a3.141,3.141,0,0,0,.125.751,3.357,3.357,0,0,0,.626,1.252,2.77,2.77,0,0,0,.939.751,3.673,3.673,0,0,0,1.252.375,5.556,5.556,0,0,0,1.439-.063,2.97,2.97,0,0,0,1.314-.688,4.327,4.327,0,0,0,1-1.377,5.518,5.518,0,0,0,.438-1.815,1.732,1.732,0,0,1,.063-.563V18.7Z" transform="translate(-105.339 -12.943)"/><path class="a" d="M185.8,9.5V29.776H182.48v-2a8.055,8.055,0,0,1-2.315,1.627,7.609,7.609,0,0,1-3.129.688,9.269,9.269,0,0,1-3.192-.563,7.6,7.6,0,0,1-2.628-1.69,7.268,7.268,0,0,1,0-10.638,8.239,8.239,0,0,1,2.628-1.69,9.269,9.269,0,0,1,3.192-.563,7.836,7.836,0,0,1,3.129.688,7.4,7.4,0,0,1,2.315,1.627V9.5Zm-3.379,13.016a4.238,4.238,0,0,0-1.752-3.379,5.755,5.755,0,0,0-1.752-.876,6.46,6.46,0,0,0-1.877-.25,5.126,5.126,0,0,0-3.379,1.377,4.466,4.466,0,0,0-1.439,3.192,4.328,4.328,0,0,0,1.439,3.129,5.458,5.458,0,0,0,3.379,1.377,6.46,6.46,0,0,0,1.877-.25,5.755,5.755,0,0,0,1.752-.876A4.1,4.1,0,0,0,182.417,22.516Z" transform="translate(-114.582 -9.5)"/><path class="a" d="M216.6,22.516a7.408,7.408,0,0,1-2.315,5.319,8.239,8.239,0,0,1-2.628,1.69,9.269,9.269,0,0,1-3.192.563,7.609,7.609,0,0,1-3.129-.688,7.4,7.4,0,0,1-2.315-1.627v2H199.7V9.5h3.317v7.76a9.022,9.022,0,0,1,2.315-1.627,7.393,7.393,0,0,1,3.129-.688,9.269,9.269,0,0,1,3.192.563,7.3,7.3,0,0,1,2.628,1.69A7.666,7.666,0,0,1,216.6,22.516Zm-3.379,0a4.334,4.334,0,0,0-1.439-3.192,5.458,5.458,0,0,0-3.379-1.377,6.46,6.46,0,0,0-1.877.25,5.755,5.755,0,0,0-1.752.876,4.331,4.331,0,0,0-1.752,3.379,4.238,4.238,0,0,0,1.752,3.379,5.755,5.755,0,0,0,1.752.876,6.46,6.46,0,0,0,1.877.25,5.126,5.126,0,0,0,3.379-1.377A3.887,3.887,0,0,0,213.217,22.516Z" transform="translate(-126.107 -9.5)"/><path class="a" d="M245,18.475V32.931H241.68v-2a8.055,8.055,0,0,1-2.315,1.627,7.609,7.609,0,0,1-3.129.688,9.269,9.269,0,0,1-3.192-.563,7.6,7.6,0,0,1-2.628-1.69,7.268,7.268,0,0,1,0-10.638,8.239,8.239,0,0,1,2.628-1.69,9.269,9.269,0,0,1,3.192-.563,7.836,7.836,0,0,1,3.129.688,7.4,7.4,0,0,1,2.315,1.627v-2H245Zm-3.317,7.259a4.238,4.238,0,0,0-1.752-3.379,5.755,5.755,0,0,0-1.752-.876,6.46,6.46,0,0,0-1.877-.25,5.126,5.126,0,0,0-3.379,1.377,4.466,4.466,0,0,0-1.439,3.192,4.328,4.328,0,0,0,1.439,3.129A5.458,5.458,0,0,0,236.3,30.3a6.46,6.46,0,0,0,1.877-.25,5.755,5.755,0,0,0,1.752-.876A4.451,4.451,0,0,0,241.68,25.735Z" transform="translate(-136.735 -12.718)"/><path class="a" d="M269.891,28.838a3.735,3.735,0,0,1-1.314,3,6.532,6.532,0,0,1-4.506,1.5H263.7c-3-.125-5.444-1.752-6.2-4.193l3.192-.814a3.266,3.266,0,0,0,3.129,2,3.374,3.374,0,0,0,2.378-.626.978.978,0,0,0,.375-.751c0-.939-1.064-1.439-2.941-2-.25-.063-.5-.125-.688-.188-.125-.063-.188-.063-.313-.125-1.252-.438-4.693-1.5-4.443-4.506.25-2.691,3-3.942,5.444-3.942,2.691,0,4.756,1.126,5.695,3.129l-3.066,1.189c-.25-.563-.814-1.314-2.566-1.314,0,0-2,0-2.128,1.126-.063.563,1.064,1,2.19,1.377.125.063.25.063.375.125l.563.188C266.386,24.583,269.828,25.584,269.891,28.838Z" transform="translate(-147.737 -12.756)"/><path class="a" d="M294.345,26.986H282.267A5.275,5.275,0,0,0,287.4,30.24a5.8,5.8,0,0,0,4.193-1.69l3.066,1.314a9.162,9.162,0,0,1-7.259,3.379c-4.819,0-8.7-3.379-8.7-7.572a8.156,8.156,0,0,1,16.271,0,8.479,8.479,0,0,1-.125,1.252l-.5.063Zm-2.816-2.5a4.922,4.922,0,0,0-9.262,0Z" transform="translate(-155.67 -12.718)"/></g></svg>