<svg xmlns="http://www.w3.org/2000/svg" width="178" height="31.679" viewBox="0 0 178 31.679"><defs><style>.a{fill:#fff;}</style></defs><path class="a" d="M17.964,0h5.7V30.951h-5.7v-2.61A8.646,8.646,0,0,1,10.8,31.558a10.186,10.186,0,0,1-7.647-3.4A11.4,11.4,0,0,1,0,19.906a11.646,11.646,0,0,1,3.156-8.314,10.186,10.186,0,0,1,7.647-3.4,8.646,8.646,0,0,1,7.161,3.217ZM7.465,24.4a5.989,5.989,0,0,0,4.43,1.76,5.851,5.851,0,0,0,4.37-1.76,6.086,6.086,0,0,0,1.7-4.491,6.086,6.086,0,0,0-1.7-4.491,5.947,5.947,0,0,0-4.37-1.76A6.021,6.021,0,0,0,5.7,19.906,6.13,6.13,0,0,0,7.465,24.4Z"/><path class="a" d="M50.947,27.58c.789,2.792,2.852,4.188,6.251,4.188a5.947,5.947,0,0,0,4.976-2.185l4.612,2.67c-2.245,3.1-5.4,4.612-9.65,4.612a11.756,11.756,0,0,1-8.8-3.338A11.388,11.388,0,0,1,45,25.152a11.3,11.3,0,0,1,3.277-8.314A11.156,11.156,0,0,1,56.652,13.5a10.446,10.446,0,0,1,8.011,3.338,11.646,11.646,0,0,1,3.156,8.314,11.193,11.193,0,0,1-.243,2.367H50.947Zm-.061-4.43H62.175a5.08,5.08,0,0,0-2-3.338,5.859,5.859,0,0,0-3.459-1.092,6.093,6.093,0,0,0-3.823,1.153A5.089,5.089,0,0,0,50.887,23.15Z" transform="translate(-17.69 -5.307)"/><path class="a" d="M91.258,20.419c0,.607.364,1.092,1.153,1.457a19.437,19.437,0,0,0,2.852.971A23.79,23.79,0,0,1,98.6,23.938a6.922,6.922,0,0,1,2.852,2.124,5.915,5.915,0,0,1,1.153,3.763,6.049,6.049,0,0,1-2.549,5.219,10.687,10.687,0,0,1-6.372,1.821q-6.827,0-9.285-5.28l4.976-2.792c.668,1.942,2.063,2.852,4.309,2.852,2.063,0,3.034-.607,3.034-1.881,0-.607-.364-1.092-1.153-1.457a14.214,14.214,0,0,0-2.852-.971c-1.092-.3-2.245-.668-3.338-1.092a6.922,6.922,0,0,1-2.852-2.124,5.513,5.513,0,0,1-1.153-3.581A6.142,6.142,0,0,1,87.8,15.381,9.241,9.241,0,0,1,93.807,13.5a10.17,10.17,0,0,1,4.916,1.214,9.164,9.164,0,0,1,3.52,3.459l-4.855,2.67a3.617,3.617,0,0,0-3.52-2.245,3.381,3.381,0,0,0-1.821.486A1.526,1.526,0,0,0,91.258,20.419Z" transform="translate(-33.179 -5.307)"/><path class="a" d="M140.291,30.951h-6.615L125.6,20.938V30.951h-5.7V0h5.7V18.571l7.586-9.71h6.8l-8.921,10.924Z" transform="translate(-47.134)"/><path class="a" d="M168.042,16.052h-4.976v9.225a2.286,2.286,0,0,0,.546,1.7,2.71,2.71,0,0,0,1.7.607,20.3,20.3,0,0,0,2.731,0v5.1c-3.945.425-6.676.061-8.314-1.092-1.578-1.153-2.428-3.277-2.428-6.312V16.052h0V10.59h0V4.4H163v6.19h4.976v5.462Z" transform="translate(-61.837 -1.73)"/><path class="a" d="M183.948,27.658c.789,2.792,2.852,4.188,6.251,4.188a5.947,5.947,0,0,0,4.976-2.185l4.612,2.67q-3.277,4.734-9.65,4.734a11.756,11.756,0,0,1-8.8-3.338A11.388,11.388,0,0,1,178,25.352a11.3,11.3,0,0,1,3.277-8.314,11.156,11.156,0,0,1,8.375-3.338,10.446,10.446,0,0,1,8.011,3.338,11.646,11.646,0,0,1,3.156,8.314,11.193,11.193,0,0,1-.243,2.367H183.948Zm-.121-4.43h11.288a5.08,5.08,0,0,0-2-3.338,5.859,5.859,0,0,0-3.459-1.092,6.093,6.093,0,0,0-3.823,1.153A5.343,5.343,0,0,0,183.826,23.228Z" transform="translate(-69.974 -5.386)"/><path class="a" d="M230.952,36.9a11.113,11.113,0,0,1-8.314-3.338,11.3,11.3,0,0,1-3.338-8.314A11.406,11.406,0,0,1,230.952,13.6a11.554,11.554,0,0,1,5.887,1.578,10.226,10.226,0,0,1,4.005,4.188l-4.916,2.852a4.96,4.96,0,0,0-2-2.185,6.187,6.187,0,0,0-7.283.91,6.146,6.146,0,0,0-1.7,4.37,5.761,5.761,0,0,0,1.7,4.309,5.625,5.625,0,0,0,4.248,1.7,5.879,5.879,0,0,0,3.1-.789,4.527,4.527,0,0,0,2-2.124l4.976,2.852a10.938,10.938,0,0,1-4.127,4.188A11.925,11.925,0,0,1,230.952,36.9Z" transform="translate(-86.21 -5.346)"/><path class="a" d="M271.559,8.254a7.959,7.959,0,0,1,6.008,2.428,9.306,9.306,0,0,1,2.367,6.736V30.951h-5.7V18.085a4.645,4.645,0,0,0-1.214-3.4,4.309,4.309,0,0,0-3.156-1.153,4.659,4.659,0,0,0-3.52,1.4A5.634,5.634,0,0,0,265,19.056V30.951h-5.7V0H265V11.349Q267.007,8.254,271.559,8.254Z" transform="translate(-101.934)"/></svg>