<?xml version="1.0" encoding="utf-8"?>
<!-- Generator: Adobe Illustrator 25.4.1, SVG Export Plug-In . SVG Version: 6.00 Build 0)  -->
<svg version="1.1" id="Laag_1" xmlns="http://www.w3.org/2000/svg" xmlns:xlink="http://www.w3.org/1999/xlink" x="0px" y="0px"
	 viewBox="0 0 24 24" style="enable-background:new 0 0 24 24;" xml:space="preserve">
<style type="text/css">
	.st0{fill:none;}
	.st1{fill:#7956BF;}
	.st2{fill:#220061;}
</style>
<path class="st0" d="M0,0h24v24H0V0z"/>
<path class="st1" d="M21,8.5c0,2.8-2.2,5.2-5,5.5v-2c1.9-0.3,3.2-2,3-4c-0.2-1.1-0.9-2.1-1.9-2.6l0.6-2C19.7,4.3,21,6.3,21,8.5z"/>
<path class="st1" d="M23,22h-2c0-2.4-1.4-4.5-3.5-5.5l0.8-1.8C21.2,16,23,18.8,23,22z"/>
<path class="st2" d="M10,1C6.7,1,4,3.7,4,7s2.7,6,6,6s6-2.7,6-6S13.3,1,10,1z M10,11c-2.2,0-4-1.8-4-4s1.8-4,4-4s4,1.8,4,4
	S12.2,11,10,11z"/>
<path class="st2" d="M18,22h-2c0-3.3-2.7-6-6-6s-6,2.7-6,6H2c0-4.4,3.6-8,8-8S18,17.6,18,22z"/>
</svg>
