<?xml version="1.0" encoding="utf-8"?>
<!-- Generator: Adobe Illustrator 25.4.1, SVG Export Plug-In . SVG Version: 6.00 Build 0)  -->
<svg version="1.1" id="Laag_1" xmlns="http://www.w3.org/2000/svg" xmlns:xlink="http://www.w3.org/1999/xlink" x="0px" y="0px"
	 viewBox="0 0 24 24" style="enable-background:new 0 0 24 24;" xml:space="preserve">
<style type="text/css">
	.st0{fill:none;}
	.st1{fill:#220061;}
	.st2{fill:#7956BF;}
</style>
<path class="st0" d="M0,0h24v24H0V0z"/>
<path class="st1" d="M12,2C6.5,2,2,6.5,2,12s4.5,10,10,10s10-4.5,10-10S17.5,2,12,2z M12,20c-4.4,0-8-3.6-8-8s3.6-8,8-8s8,3.6,8,8
	S16.4,20,12,20z"/>
<path class="st2" d="M16.5,13.5c0,1.4-1.1,2.5-2.5,2.5h-1v2h-2v-2H8.5v-2H14c0.3,0,0.5-0.2,0.5-0.5S14.3,13,14,13h-4
	c-1.4,0-2.5-1.1-2.5-2.5S8.6,8,10,8h1V6h2v2h2.5v2H10c-0.3,0-0.5,0.2-0.5,0.5S9.7,11,10,11h4C15.4,11,16.5,12.1,16.5,13.5z"/>
</svg>
