<svg xmlns="http://www.w3.org/2000/svg" width="147.777" height="35.894" viewBox="0 0 147.777 35.894"><defs><style>.a{fill:#fff;}</style></defs><path class="a" d="M37.359,34.686v-11a6.131,6.131,0,0,0-1.975-5.006,6.948,6.948,0,0,0-4.547-1.63q-4.788.034-7.785,5.167a5.578,5.578,0,0,0-2.3-3.858A7.031,7.031,0,0,0,16.691,17.1q-4.788.034-7.785,5.167V17.026A44.714,44.714,0,0,1,.2,18.634v.276a6.11,6.11,0,0,1,2.549,2,9.223,9.223,0,0,1,.6,4.088v9.783a7.028,7.028,0,0,1-.574,3.514A6.052,6.052,0,0,1,.156,40.014v.322H12.121v-.322a5.767,5.767,0,0,1-2.526-1.722,7.377,7.377,0,0,1-.551-3.514V23.732c1.355-2.319,2.939-3.468,4.754-3.468a3.528,3.528,0,0,1,2.71,1.217,5.147,5.147,0,0,1,1.1,3.582c0,5.075-.023,8.313-.046,9.691a7.569,7.569,0,0,1-.6,3.537,5.767,5.767,0,0,1-2.618,1.722v.322h11.9v-.322a5.767,5.767,0,0,1-2.526-1.722,7.377,7.377,0,0,1-.551-3.514V23.732c1.4-2.319,3.008-3.468,4.8-3.468a3.589,3.589,0,0,1,2.756,1.217,5.147,5.147,0,0,1,1.1,3.582c0,2.067-.023,5.3-.092,9.691a7.164,7.164,0,0,1-.62,3.514,6.052,6.052,0,0,1-2.618,1.722v.322H40.459v-.322a6.026,6.026,0,0,1-2.549-1.722,7.028,7.028,0,0,1-.574-3.514ZM52.837,40.7a10.871,10.871,0,0,0,8.428-3.4,12.245,12.245,0,0,0,3.123-8.635,11.529,11.529,0,0,0-3.146-8.428,10.95,10.95,0,0,0-8.2-3.192,10.829,10.829,0,0,0-8.474,3.468,12.418,12.418,0,0,0-3.146,8.635,11.343,11.343,0,0,0,3.169,8.382A11.111,11.111,0,0,0,52.814,40.7Zm1.01-1.079a4,4,0,0,1-2.985-1.447,10.081,10.081,0,0,1-2.09-3.605,26.738,26.738,0,0,1-1.148-4.432,25.816,25.816,0,0,1-.39-4.225,10.162,10.162,0,0,1,1.378-5.787A3.868,3.868,0,0,1,55,19.552a9.364,9.364,0,0,1,2.067,3.605,30.483,30.483,0,0,1,1.1,4.432,25.185,25.185,0,0,1,.367,4.2,10.176,10.176,0,0,1-1.378,5.833A4.042,4.042,0,0,1,53.8,39.6Zm35.618-4.937V23.824A6.318,6.318,0,0,0,87.491,18.7a6.942,6.942,0,0,0-4.616-1.653c-3.33.023-6.132,1.745-8.428,5.19V16.957a44.714,44.714,0,0,1-8.7,1.608v.276a6.11,6.11,0,0,1,2.549,2,9.223,9.223,0,0,1,.6,4.088v9.783a7.028,7.028,0,0,1-.574,3.514A6.052,6.052,0,0,1,65.7,39.945v.322H77.662v-.322a5.767,5.767,0,0,1-2.526-1.722,7.377,7.377,0,0,1-.551-3.514V23.617a11.777,11.777,0,0,1,2.572-2.641,5.377,5.377,0,0,1,3.169-.9,2.842,2.842,0,0,1,2.756,1.562c.528,1.033.781,3.077.781,6.132,0,.482,0,1.676-.023,3.56s-.023,3.031-.023,3.422a7.523,7.523,0,0,1-.6,3.514,5.8,5.8,0,0,1-2.6,1.722v.322H92.566v-.322a5.767,5.767,0,0,1-2.526-1.722,7.377,7.377,0,0,1-.551-3.514Zm11.827,5.971c2.687,0,4.891-1.355,6.614-4.088l-.184-.23a4.681,4.681,0,0,1-3.307,1.653,3.318,3.318,0,0,1-2.48-1.056,4.84,4.84,0,0,1-.987-3.514l.092-14.491h5.925l.184-1.309h-6.155V11.515h-.528q-1.688,3-7.441,6.752v.643h2.3V34.3a6.194,6.194,0,0,0,1.722,4.731,5.935,5.935,0,0,0,4.225,1.63Zm30.8-5.879V17a40.4,40.4,0,0,1-8.818,1.562v.322a5.428,5.428,0,0,1,2.572,1.929,9.923,9.923,0,0,1,.551,4.111V34.8c-1.722,2-3.514,2.985-5.374,2.985a3.6,3.6,0,0,1-2.8-1.24,5.364,5.364,0,0,1-1.1-3.674c0-1.7.023-4.34.046-7.946s.046-6.269.046-7.992a39.923,39.923,0,0,1-8.818,1.608v.322a5.291,5.291,0,0,1,2.549,1.952,9.778,9.778,0,0,1,.574,4.134v9.14c0,2.319.643,4.019,1.952,5.121a6.942,6.942,0,0,0,4.616,1.653c3.284,0,6.086-1.608,8.405-4.846v4.891l8.658-1.608v-.276a5.527,5.527,0,0,1-2.526-1.309,5.215,5.215,0,0,1-.551-2.939Zm3.881,5.466h11.965v-.322a5.767,5.767,0,0,1-2.526-1.722,7.377,7.377,0,0,1-.551-3.514V5.016a39.612,39.612,0,0,1-8.864,1.608v.322a5.881,5.881,0,0,1,2.549,1.906,9.313,9.313,0,0,1,.6,4.157V34.686a7.028,7.028,0,0,1-.574,3.514,6.052,6.052,0,0,1-2.618,1.722Z" transform="translate(-0.156 -5.016)"/></svg>