<?xml version="1.0" encoding="utf-8"?>
<!-- Generator: Adobe Illustrator 25.4.1, SVG Export Plug-In . SVG Version: 6.00 Build 0)  -->
<svg version="1.1" id="Laag_1" xmlns="http://www.w3.org/2000/svg" xmlns:xlink="http://www.w3.org/1999/xlink" x="0px" y="0px"
	 viewBox="0 0 24 24" style="enable-background:new 0 0 24 24;" xml:space="preserve">
<style type="text/css">
	.st0{fill:none;}
	.st1{fill:#7956BF;}
	.st2{fill:#220061;}
</style>
<path class="st0" d="M0,0v24h24V0H0z M22,13h-9v6c0,1.1,0.9,2,2,2s2-0.9,2-2v-1h2v1c0,2.2-1.8,4-4,4s-4-1.8-4-4v-6H2v-1
	c0-5.2,4-9.5,9-10v0c0-0.5,0.5-1,1-1s1,0.5,1,1v0c5,0.5,9,4.8,9,10V13z"/>
<path class="st1" d="M19,18v1c0,2.2-1.8,4-4,4s-4-1.8-4-4v-6h2v6c0,1.1,0.9,2,2,2s2-0.9,2-2v-1H19z"/>
<path class="st2" d="M13,2L13,2c0-0.6-0.5-1-1-1s-1,0.5-1,1v0C6,2.5,2,6.8,2,12v1h20v-1C22,6.8,18,2.5,13,2z M4.1,11
	C4.5,7.4,7.4,4.5,11,4.1c4.4-0.5,8.4,2.6,8.9,6.9H4.1z"/>
</svg>
