<svg width="21" height="18" viewBox="0 0 21 18" fill="none" xmlns="http://www.w3.org/2000/svg">
<path d="M18.8413 4.25061C18.8547 4.43715 18.8547 4.62373 18.8547 4.81027C18.8547 10.5 14.5241 17.0558 6.60913 17.0558C4.17067 17.0558 1.90546 16.3496 0 15.1237C0.346459 15.1637 0.679547 15.177 1.03934 15.177C3.05136 15.177 4.90354 14.4975 6.38261 13.3382C4.49047 13.2982 2.90481 12.059 2.35848 10.3534C2.625 10.3934 2.89148 10.42 3.17133 10.42C3.55774 10.42 3.94419 10.3667 4.30393 10.2735C2.33186 9.87369 0.852756 8.14148 0.852756 6.04948V5.9962C1.4257 6.316 2.092 6.51587 2.79817 6.54249C1.6389 5.76963 0.879416 4.45048 0.879416 2.95809C0.879416 2.15861 1.09257 1.42574 1.46569 0.786147C3.58436 3.39782 6.76901 5.10337 10.34 5.28995C10.2734 4.97015 10.2334 4.63706 10.2334 4.30394C10.2334 1.93208 12.1522 0 14.5374 0C15.7766 0 16.8959 0.519668 17.682 1.35914C18.6547 1.1726 19.5875 0.812807 20.4136 0.319799C20.0938 1.31919 19.4143 2.15865 18.5215 2.69161C19.3876 2.59838 20.2271 2.35848 20.9999 2.02539C20.4137 2.87815 19.6808 3.63764 18.8413 4.25061Z" fill="white"/>
</svg>
