<?xml version="1.0" encoding="utf-8"?>
<!-- Generator: Adobe Illustrator 25.4.1, SVG Export Plug-In . SVG Version: 6.00 Build 0)  -->
<svg version="1.1" id="Laag_1" xmlns="http://www.w3.org/2000/svg" xmlns:xlink="http://www.w3.org/1999/xlink" x="0px" y="0px"
	 viewBox="0 0 60.2 11.3" style="enable-background:new 0 0 60.2 11.3;" xml:space="preserve">
<style type="text/css">
	.st0{fill:#050C26;}
	.st1{fill:#7956BF;}
</style>
<g id="logo" transform="translate(11268.521 279.243)">
	<path id="Path_8134" class="st0" d="M-11265.7-273.1l3.9-4.2v-1.9h-6.5v1.9h3.9l-4.1,4.2v1.9h7v-1.9H-11265.7z M-11253.8-279.1v1.1
		c-0.3-0.3-0.7-0.6-1.1-0.8c-0.5-0.3-1.1-0.4-1.7-0.4c-0.6,0-1.2,0.1-1.7,0.3c-0.5,0.2-1,0.5-1.5,0.9c-1.6,1.5-1.7,4.1-0.1,5.7
		c0,0.1,0.1,0.1,0.1,0.1c0.4,0.4,0.9,0.7,1.5,0.9c0.6,0.2,1.2,0.3,1.7,0.3c0.6,0,1.2-0.2,1.7-0.4c0.4-0.2,0.8-0.5,1.1-0.8v1.1h2.2
		v-8L-11253.8-279.1z M-11254.1-274.1c-0.2,0.3-0.4,0.5-0.7,0.7c-0.3,0.2-0.6,0.3-0.9,0.4c-0.3,0.1-0.6,0.1-0.9,0.1
		c-0.6,0-1.2-0.3-1.6-0.7c-0.2-0.2-0.4-0.4-0.5-0.7c-0.1-0.3-0.2-0.5-0.2-0.8c0-0.3,0.1-0.6,0.2-0.8c0.1-0.3,0.3-0.5,0.5-0.7
		c0.4-0.4,1-0.6,1.6-0.7c0.3,0,0.6,0,0.9,0.1c0.3,0.1,0.6,0.2,0.9,0.4c0.3,0.2,0.5,0.4,0.7,0.7
		C-11253.7-275.5-11253.7-274.7-11254.1-274.1z M-11242.2-278c-0.4-0.4-0.9-0.7-1.5-0.9c-0.6-0.2-1.2-0.3-1.7-0.3
		c-0.6,0-1.2,0.2-1.7,0.4c-0.4,0.2-0.8,0.5-1.1,0.8v-1.1h-2.2v11.1h2.2v-4.3c0.3,0.3,0.7,0.6,1.1,0.8c0.5,0.3,1.1,0.4,1.7,0.4
		c0.6,0,1.2-0.1,1.7-0.3c0.5-0.2,1-0.5,1.5-0.9c1.6-1.5,1.7-4.1,0.1-5.7C-11242.1-277.9-11242.2-278-11242.2-278L-11242.2-278z
		 M-11243.3-274.3c-0.1,0.3-0.3,0.5-0.5,0.7c-0.4,0.4-1,0.6-1.6,0.7c-0.3,0-0.6,0-0.9-0.1c-0.3-0.1-0.6-0.2-0.9-0.4
		c-0.3-0.2-0.5-0.4-0.7-0.7c-0.3-0.6-0.3-1.3,0-1.9c0.2-0.3,0.4-0.5,0.7-0.7c0.3-0.2,0.6-0.3,0.9-0.4c0.3-0.1,0.6-0.1,0.9-0.1
		c0.6,0,1.2,0.3,1.6,0.7c0.2,0.2,0.4,0.4,0.5,0.7c0.1,0.3,0.2,0.5,0.2,0.8C-11243.1-274.8-11243.2-274.5-11243.3-274.3
		L-11243.3-274.3z M-11231.9-278c-0.4-0.4-0.9-0.7-1.5-0.9c-0.6-0.2-1.2-0.3-1.7-0.3c-0.6,0-1.2,0.2-1.7,0.4
		c-0.4,0.2-0.8,0.5-1.1,0.8v-1.1h-2.2v11.1h2.2v-4.3c0.3,0.3,0.7,0.6,1.1,0.8c0.5,0.3,1.1,0.4,1.7,0.4c0.6,0,1.2-0.1,1.8-0.3
		c0.5-0.2,1-0.5,1.5-0.9c1.6-1.5,1.7-4.1,0.1-5.7C-11231.8-277.9-11231.8-278-11231.9-278L-11231.9-278z M-11233-274.3
		c-0.1,0.3-0.3,0.5-0.5,0.7c-0.4,0.4-1,0.6-1.6,0.7c-0.3,0-0.6,0-0.9-0.1c-0.3-0.1-0.6-0.2-0.9-0.4c-0.3-0.2-0.5-0.4-0.7-0.7
		c-0.3-0.6-0.3-1.3,0-1.9c0.2-0.3,0.4-0.5,0.7-0.7c0.3-0.2,0.6-0.3,0.9-0.4c0.3-0.1,0.6-0.1,0.9-0.1c0.6,0,1.2,0.3,1.6,0.7
		c0.2,0.2,0.4,0.4,0.5,0.7c0.1,0.3,0.2,0.5,0.2,0.8C-11232.8-274.8-11232.9-274.5-11233-274.3L-11233-274.3z M-11223.7-279.1
		l-0.2,0.5l-2.2,5l-2.3-5.5h-2.3l3.6,7.7l-1.6,3.4h2.3l2.4-5.2l2.7-6L-11223.7-279.1z"/>
	<rect id="Rectangle_1229" x="-11219.2" y="-275" class="st1" width="10.9" height="2"/>
</g>
</svg>
